<?xml version="1.0" encoding="utf-8"?>
<!-- Generator: Adobe Illustrator 18.0.0, SVG Export Plug-In . SVG Version: 6.00 Build 0)  -->
<!DOCTYPE svg PUBLIC "-//W3C//DTD SVG 1.1//EN" "http://www.w3.org/Graphics/SVG/1.1/DTD/svg11.dtd">
<svg version="1.1" id="Laag_1" xmlns="http://www.w3.org/2000/svg" xmlns:xlink="http://www.w3.org/1999/xlink" x="0px" y="0px"
	 viewBox="0 0 725.7 725.7" enable-background="new 0 0 725.7 725.7" xml:space="preserve">
<g>
	<polygon fill-rule="evenodd" clip-rule="evenodd" fill="#1E428A" points="68.4,624.1 55,624.1 55,528.1 68.4,528.1 68.4,624.1 	"/>
	<path fill-rule="evenodd" clip-rule="evenodd" fill="#1E428A" d="M396.9,527.4h-12.2l-41.7,96.7h12.2l13-30.5h30l5.8,30.5h12.2
		L396.9,527.4z M372.7,584l15.8-39.6h0.2l7.7,39.6H372.7z"/>
	<path fill-rule="evenodd" clip-rule="evenodd" fill="#1E428A" d="M97.7,561.6v7.9c5-5.5,12-8.9,19-8.9c7.4,0,14.2,3.4,17.5,9.6
		c3.1,4.3,3.6,9.4,3.6,18.2v36.5h-12.2v-36.2c0-12.7-3.8-17.8-13.2-17.8c-5.8,0-10.6,2.6-14.6,8.6v45.3H84.5v-63.3H97.7L97.7,561.6z
		"/>
	<path fill-rule="evenodd" clip-rule="evenodd" fill="#1E428A" d="M170.3,561.2h20.1v11.3h-20.1v27.4v3.4c0.2,7.9,3.4,11,9.4,11
		c4.1,0,8.9-1.2,14.2-4.8v11.8c-4.6,2.6-11.5,4.3-16.1,4.3c-8.6,0-16.1-4.3-18.5-11.5c-1.2-3.8-1.2-5.5-1.2-13.4v-28.1h-11v-1.7
		l23.3-22.8V561.2L170.3,561.2z"/>
	<path fill-rule="evenodd" clip-rule="evenodd" fill="#1E428A" d="M255,592.4c0-19.9-11-32.4-27.8-32.4c-17.8,0-29.7,13.2-29.7,32.4
		c0,9.6,3.4,17.8,9.4,24c6.2,6.7,12.7,9.1,21.8,9.1c9.8,0,16.6-2.2,24.9-7.4v-12.2c-7,5.3-14.4,7.9-22.8,7.9
		c-11.8,0-19.4-7.9-20.6-20.2H255V592.4z M210.1,586.4c2.2-10.3,7.7-15.6,17-15.6c8.6,0,14.2,5.3,15.1,15.6H210.1z"/>
	<polygon fill-rule="evenodd" clip-rule="evenodd" fill="#1E428A" points="540.1,624.3 527.9,624.3 537,561.2 548.5,561.2 
		540.1,624.3 	"/>
	<path fill-rule="evenodd" clip-rule="evenodd" fill="#1E428A" d="M545.6,541.2c-3.8,0-6.7-2.6-6.7-6.5c0-3.8,2.2-6.7,6.7-6.7
		c3.4,0,6.5,2.9,6.5,7C552.1,538.6,549,541.2,545.6,541.2L545.6,541.2z"/>
	<path fill-rule="evenodd" clip-rule="evenodd" fill="#1E428A" d="M608,593.8c0.7-1.9,0.7-6.1,0.7-8.5c0-15.4-9.4-26.1-23-26.1
		c-16.8,0-29.7,16.3-29.7,36.9c0,18,11,30,26.9,30c7.4,0,14.4-2.6,21.1-7.4l1.7-11.8c-8.4,6.2-15.6,9.4-21.6,9.4
		c-8.9,0-15.8-7.9-15.8-18.9c0-1.2,0-1.6,0-3.5H608z M585,568.8c0.2,0,0.4,0,0.7,0c6.7,0,11.3,5.5,11.3,13.4v4.4h-0.4h-25.8h-1.2
		C571.9,578.8,576.9,569,585,568.8z"/>
	<path fill-rule="evenodd" clip-rule="evenodd" fill="#1E428A" d="M648.1,571.8h-13.2l-9.8,79.4h-11.5l9.6-79.4h-9.6l1.2-10.3h10.3
		c0.7-11,2.9-16.8,6.5-22.8c5.5-7.2,14.2-11.5,23.7-11.5c4.6,0,8.6,1,15.4,3.1l-1.9,11.8c-4.1-2.2-8.9-3.6-13-3.6
		c-11,0-18,8.4-19.4,23h13L648.1,571.8L648.1,571.8z"/>
	<path fill="#1E428A" d="M495.1,610.2c0-0.8,0-1.4,0.1-2.1l6.4-36.4l15.7,0l2.2-10.4h-16l2.2-13.2l-27,21.9l0,0l-0.3,1.7h11
		l-6.7,38.1l0,0c-0.1,0.6-0.2,1.2-0.2,1.8c0,8.9,6.7,14.4,17.3,14.4c4.1,0,7.4-0.7,12.5-2.9l1.2-11.5c-3.8,2.4-7.7,3.8-11.8,3.8
		C497.3,615.4,495.1,613.8,495.1,610.2z"/>
	<path fill="#1E428A" d="M461.8,559.1c-24.7,0-42,15.4-42,37.9c0,18,11,29,28.1,29c0.9,0,1.7,0,2.4-0.1c9.3-0.3,15-3.7,15-3.7
		l1.5-10.6c-6.1,3.4-16.1,3.9-16.1,3.9l0,0c-0.2,0-0.4,0-0.6,0c-11,0-17.8-7.2-17.8-18.5c0-15.6,12.5-27.1,29-27.1
		c1.9,0,4.1,0,7.9,0.7l1,0.2l1.4-10.6C467.6,559.1,465.9,559.1,461.8,559.1z"/>
	<path fill="#1E428A" d="M298.1,560.3c-2.4,0-4.8,0.6-7.2,2v0c0,0-8,4.3-12,9.7v-10.7h-12.2v63.3h12.2V591
		c0-10.3,7.2-18.7,15.1-18.7c3.4,0,8.2,1.9,12.2,6l6.2-11C307.5,562.7,302.7,560.3,298.1,560.3z"/>
	<path fill="#1E428A" d="M318.8,157c27.9-22.6,101.6-56.7,144.8-56.7c4.5-2.6,13.3-12,5.7-16c-48.7,0-135,38.3-169.4,72.7h10.1
		H318.8z"/>
	<path fill="#1E428A" d="M234.7,473.1c-23.5,0-44.1-5.9-59.1-17.7c-6.7-5.6-35.9-34.7-16.8-100.5c2-6.5,4.2-13.2,6.1-20.5
		c0.9-3.6-4.2-8.5-7.3-4.6c-3.2,4.2-5.9,9.2-8.1,14.7h0c0,0-17.5,38.1-10,77.4c2.3,15.1,8.3,27.8,17.1,37.9c0,0.1,0.1,0.1,0.1,0.2
		l0,0c16.3,18.6,42.2,28.7,72.8,28.7c77.6,0,165.3-42.2,227.8-92.3h-18.4C383.5,437.5,299.4,473.1,234.7,473.1z"/>
	<path fill="#1E428A" d="M399.1,234.1h89.4v-72.5c-25.4,0-44.4,0-58.4,0c-0.1,0-8.7,0-34.2,0c-28.3,0-77.4,0-158.7,0v72.5h89.4
		c0,28.3,0,56.5,0,84.8h-89.4v72.2h251.3c0-72.1,0-47.7,0-72.2h-89.4V234.1z"/>
	<polygon fill="#1E428A" points="230.6,312.4 320.1,312.4 320.1,240.7 230.6,240.7 230.6,161.7 116.6,276.5 230.6,391.1 	"/>
	<polygon fill="#1E428A" points="609.1,276.5 495,161.7 495,240.7 405.6,240.7 405.6,312.4 495,312.4 495,391.1 	"/>
	<path fill="#1E428A" d="M574.3,177.8c0,15.4-1.6,27.5-6.4,42.1c-1.5,6.3-0.2,9.7,6.1,5.8c8.3-12.6,11.3-35.3,11.3-50.6
		c0-48-23.4-81.7-72.1-90.7c-6.3,1.5-10.9,10.5-5.8,16C546.8,102.9,574.3,140.4,574.3,177.8z"/>
	<path fill="#1E428A" d="M342.9,597.4h-30.1v-9.9h30.1V597.4z"/>
</g>
</svg>
