<?xml version="1.0" encoding="utf-8"?>
<!-- Generator: Adobe Illustrator 16.0.0, SVG Export Plug-In . SVG Version: 6.00 Build 0)  -->
<!DOCTYPE svg PUBLIC "-//W3C//DTD SVG 1.1//EN" "http://www.w3.org/Graphics/SVG/1.1/DTD/svg11.dtd">
<svg version="1.1" id="Laag_1" xmlns="http://www.w3.org/2000/svg" xmlns:xlink="http://www.w3.org/1999/xlink" x="0px" y="0px"
	 width="725.67px" height="725.67px" viewBox="0 0 725.67 725.67" enable-background="new 0 0 725.67 725.67" xml:space="preserve">
<path fill="#1E428A" d="M311.281,212.796c32.093-26.038,116.944-65.249,166.63-65.249c5.19-2.977,15.272-13.838,6.533-18.452
	c-56.023,0-155.385,44.112-194.981,83.7h11.592H311.281z"/>
<path fill="#1E428A" d="M214.533,576.653c-27.05,0-50.779-6.768-67.991-20.319c-7.665-6.46-41.291-39.982-19.34-115.698
	c2.343-7.478,4.804-15.165,6.996-23.598c1.053-4.144-4.809-9.799-8.361-5.295c-3.683,4.801-6.75,10.573-9.316,16.892l-0.003-0.003
	c0,0-20.176,43.845-11.562,89.04c2.684,17.335,9.55,31.981,19.716,43.68c0.047,0.06,0.09,0.119,0.138,0.179l0.02-0.003
	c18.763,21.465,48.6,32.986,83.837,32.986c89.367,0,190.26-48.618,262.249-106.273h-21.142
	C385.773,535.715,289.005,576.653,214.533,576.653z"/>
<path fill="#1E428A" d="M403.703,301.612h102.909v-83.399c-29.274,0-51.142,0-67.196,0c-0.141,0-10.057,0-39.384,0
	c-32.56,0-89.046,0-182.647,0v83.399h102.915c0,32.574,0,65.018,0,97.592H217.385v83.08h289.228c0-82.999,0-54.862,0-83.08H403.703
	V301.612z"/>
<polygon fill="#1E428A" points="209.843,391.666 312.762,391.666 312.762,309.153 209.843,309.153 209.843,218.212 78.535,350.408 
	209.843,482.284 "/>
<polygon fill="#1E428A" points="645.465,350.408 514.161,218.213 514.161,309.153 411.241,309.153 411.241,391.666 514.161,391.666 
	514.161,482.284 "/>
<path fill="#1E428A" d="M605.37,236.813c0,17.688-1.824,31.617-7.396,48.431c-1.738,7.205-0.196,11.15,7.015,6.728
	c9.518-14.509,12.967-40.649,12.967-58.23c0-55.259-26.896-94.081-83.023-104.362c-7.303,1.733-12.579,12.112-6.725,18.452
	C573.757,150.62,605.37,193.765,605.37,236.813z"/>
</svg>
