<?xml version="1.0" encoding="utf-8"?>
<!-- Generator: Adobe Illustrator 16.0.3, SVG Export Plug-In . SVG Version: 6.00 Build 0)  -->
<!DOCTYPE svg PUBLIC "-//W3C//DTD SVG 1.1//EN" "http://www.w3.org/Graphics/SVG/1.1/DTD/svg11.dtd">
<svg version="1.1" id="Laag_1" xmlns="http://www.w3.org/2000/svg" xmlns:xlink="http://www.w3.org/1999/xlink" x="0px" y="0px"
	 width="1451.34px" height="725.67px" viewBox="0 0 1451.34 725.67" enable-background="new 0 0 1451.34 725.67"
	 xml:space="preserve">
<polygon fill-rule="evenodd" clip-rule="evenodd" fill="#FFFFFF" points="515.289,419.83 497.807,419.83 497.807,294.963 
	515.289,294.963 515.289,419.83 "/>
<path fill-rule="evenodd" clip-rule="evenodd" fill="#FFFFFF" d="M942.727,294.027h-15.92L872.492,419.83h15.919l16.859-39.641
	h39.017l7.496,39.641h15.92L942.727,294.027z M911.199,367.696l20.602-51.505h0.316l9.988,51.505H911.199z"/>
<path fill-rule="evenodd" clip-rule="evenodd" fill="#FFFFFF" d="M553.368,338.512v10.304c6.556-7.183,15.609-11.553,24.66-11.553
	c9.679,0,18.418,4.37,22.789,12.486c4.059,5.62,4.681,12.175,4.681,23.728v47.448h-15.921v-47.139
	c0-16.544-4.994-23.099-17.167-23.099c-7.493,0-13.736,3.433-19.042,11.237v59h-17.173v-82.413H553.368L553.368,338.512z"/>
<path fill-rule="evenodd" clip-rule="evenodd" fill="#FFFFFF" d="M647.898,338.043h26.22v14.67h-26.22v35.591v4.369
	c0.312,10.299,4.37,14.36,12.173,14.36c5.306,0,11.552-1.561,18.418-6.243v15.295c-5.932,3.435-14.985,5.618-20.915,5.618
	c-11.239,0-20.917-5.618-24.038-14.982c-1.559-4.993-1.559-7.184-1.559-17.483v-36.524h-14.361v-2.184l30.281-29.658V338.043
	L647.898,338.043z"/>
<path fill-rule="evenodd" clip-rule="evenodd" fill="#FFFFFF" d="M758.042,378.627c0-25.913-14.361-42.143-36.211-42.143
	c-23.102,0-38.708,17.167-38.708,42.143c0,12.486,4.369,23.102,12.174,31.216c8.115,8.739,16.543,11.861,28.407,11.861
	c12.801,0,21.541-2.808,32.463-9.675v-15.921c-9.053,6.864-18.729,10.304-29.65,10.304c-15.3,0-25.287-10.304-26.849-26.223h58.375
	V378.627z M699.667,370.821c2.81-13.422,9.987-20.292,22.164-20.292c11.24,0,18.416,6.869,19.666,20.292H699.667z"/>
<polygon fill-rule="evenodd" clip-rule="evenodd" fill="#FFFFFF" points="1129.06,420.14 1113.139,420.14 1124.999,338.043 
	1139.981,338.043 1129.06,420.14 "/>
<path fill-rule="evenodd" clip-rule="evenodd" fill="#FFFFFF" d="M1136.238,320.248c-4.997,0-8.743-3.432-8.743-8.429
	c0-4.994,2.809-8.743,8.743-8.743c4.367,0,8.426,3.749,8.426,9.055C1144.664,316.815,1140.605,320.248,1136.238,320.248
	L1136.238,320.248z"/>
<path fill-rule="evenodd" clip-rule="evenodd" fill="#FFFFFF" d="M1217.442,380.5c0.938-2.498,0.938-7.965,0.938-11.088
	c0-19.979-12.178-34.027-29.972-34.027c-21.852,0-38.707,21.23-38.707,48.078c0,23.412,14.359,39.02,34.959,39.02
	c9.68,0,18.731-3.433,27.477-9.676l2.181-15.297c-10.926,8.117-20.29,12.172-28.093,12.172c-11.553,0-20.604-10.3-20.604-24.658
	c0-1.561,0-2.024,0-4.523H1217.442z M1187.528,347.906c0.29-0.021,0.584-0.032,0.881-0.032c8.74,0,14.671,7.179,14.671,17.479v5.778
	h-0.457h-33.567h-1.553C1170.464,360.905,1176.901,348.165,1187.528,347.906z"/>
<path fill-rule="evenodd" clip-rule="evenodd" fill="#FFFFFF" d="M1269.608,351.777h-17.171l-12.799,103.329h-14.984l12.484-103.329
	h-12.484l1.561-13.424h13.424c0.935-14.361,3.747-21.852,8.43-29.657c7.178-9.362,18.417-14.981,30.903-14.981
	c5.93,0,11.238,1.246,19.979,4.058l-2.496,15.296c-5.311-2.81-11.554-4.683-16.857-4.683c-14.36,0-23.412,10.926-25.288,29.967
	h16.857L1269.608,351.777L1269.608,351.777z"/>
<path fill="#FFFFFF" d="M1070.55,401.729c0-1.003,0.009-1.88,0.091-2.788l8.339-47.347l20.417,0l2.874-13.55l-20.795,0l2.809-17.171
	l-35.145,28.539l-0.038-0.017l-0.419,2.2h14.376l-8.761,49.627h0.001c-0.167,0.769-0.294,1.544-0.294,2.381
	c0,11.548,8.741,18.728,22.476,18.728c5.308,0,9.678-0.935,16.235-3.747l1.563-14.98c-4.997,3.12-9.994,4.992-15.299,4.992
	C1073.362,408.594,1070.55,406.412,1070.55,401.729z"/>
<path fill="#FFFFFF" d="M1027.218,335.232c-32.156,0-54.63,19.979-54.63,49.324c0,23.414,14.36,37.773,36.522,37.773
	c1.133,0,2.182-0.048,3.176-0.137c12.058-0.347,19.46-4.858,19.46-4.858l1.99-13.787c-7.99,4.453-20.989,5.039-20.989,5.039
	l-0.006,0.034c-0.266-0.016-0.537-0.026-0.82-0.026c-14.361,0-23.103-9.365-23.103-24.038c0-20.29,16.233-35.275,37.775-35.275
	c2.494,0,5.307,0,10.3,0.938l1.25,0.311l1.872-13.736C1034.709,335.232,1032.522,335.232,1027.218,335.232z"/>
<path fill="#FFFFFF" d="M814.148,336.794c-3.152,0-6.253,0.783-9.364,2.598v-0.018c0,0-10.35,5.626-15.608,12.626v-13.957h-15.919
	v82.413h15.919v-43.704c0-13.422,9.366-24.347,19.663-24.347c4.373,0,10.616,2.495,15.923,7.802l8.118-14.361
	C826.322,339.916,820.081,336.794,814.148,336.794z"/>
<path fill="#FFFFFF" d="M259.105,293.392c15.171-12.309,55.284-30.846,78.772-30.846c2.455-1.407,7.22-6.542,3.089-8.723
	c-26.485,0-73.458,20.854-92.177,39.568h5.48H259.105z"/>
<path fill="#FFFFFF" d="M213.369,465.404c-12.789,0-24.006-3.199-32.143-9.605c-3.623-3.055-19.52-18.902-9.143-54.695
	c1.108-3.537,2.271-7.17,3.308-11.156c0.498-1.961-2.273-4.633-3.953-2.504c-1.741,2.27-3.19,4.998-4.403,7.984h-0.002
	c0,0-9.538,20.727-5.466,42.094c1.269,8.193,4.515,15.117,9.321,20.648c0.022,0.029,0.043,0.055,0.065,0.084l0.01-0.002
	c8.87,10.146,22.975,15.594,39.633,15.594c42.248,0,89.945-22.982,123.977-50.238h-9.994
	C294.321,446.049,248.574,465.404,213.369,465.404z"/>
<path fill="#FFFFFF" d="M302.797,335.379h48.649v-39.426c-13.839,0-24.177,0-31.766,0c-0.067,0-4.755,0-18.619,0
	c-15.393,0-42.096,0-86.346,0v39.426h48.652c0,15.399,0,30.738,0,46.136h-48.652v39.275h136.73c0-39.236,0-25.936,0-39.275h-48.649
	V335.379z"/>
<polygon fill="#FFFFFF" points="211.151,377.951 259.805,377.951 259.805,338.944 211.151,338.944 211.151,295.953 149.076,358.448 
	211.151,420.791 "/>
<polygon fill="#FFFFFF" points="417.088,358.448 355.016,295.953 355.016,338.944 306.361,338.944 306.361,377.951 355.016,377.951 
	355.016,420.791 "/>
<path fill="#FFFFFF" d="M398.134,304.746c0,8.361-0.863,14.946-3.497,22.896c-0.822,3.406-0.093,5.271,3.316,3.18
	c4.5-6.858,6.13-19.216,6.13-27.527c0-26.124-12.715-44.476-39.249-49.337c-3.452,0.82-5.947,5.727-3.179,8.723
	C383.189,263.999,398.134,284.396,398.134,304.746z"/>
<path fill="#FFFFFF" d="M872.492,385.076h-39.209v-12.904h39.209V385.076z"/>
</svg>
